# xmcd
#
# Track frame offsets:
#	182
#	11030
#	36750
#	54117
#	70065
#	94300
#	124455
#	152482
#	173407
#	195490
#	214582
#	227852
#	253720
#	282602
#	292775
#	306662
#
# Disc length: 4405 seconds
#
# Revision: 1
# Processed by: cddbd v1.4PL0 Copyright (c) Steve Scherf et al.
# Submitted via: EasyCDDAExtractor 5.0.7
#
DISCID=e1113310
DTITLE=Kerri Chandler - Kaoz On King Street
DYEAR=1997
DGENRE=House
TTITLE0=Kaoz On King Street - Kerri Chandler
TTITLE1=Just Wanna Be With U - Bassmental feat. Charles McDougald
TTITLE2=Sunlight - Kerri Chandler feat. Hunter Hayes
TTITLE3=Pick It Up - Carolyn Harding
TTITLE4=Harder Gets Harder - Kerri Chandler
TTITLE5=Hallelujah - Kerri Chandler
TTITLE6=Be There - Kerri Chandler
TTITLE7=The Way I Feel ('97) - Tears Of Velva
TTITLE8=It's The Music - Bassmental feat. Charles McDougald
TTITLE9=Smoke (KAMI WA AI) - Kerri Chandler
TTITLE10=Keep Me Inside - Kerri Chandler
TTITLE11=I'm Ready - Kerri Chandler feat. Carole Sylvan
TTITLE12=Restriction - Kerri Chandler feat. Gate-ah
TTITLE13=Here-N-Now - Bassmental
TTITLE14=All About Love - Kerri Chandler
TTITLE15=Come Home - Kerri Chandler feat. Wilma Beckford
EXTD=
EXTT0=
EXTT1=
EXTT2=
EXTT3=
EXTT4=
EXTT5=
EXTT6=
EXTT7=
EXTT8=
EXTT9=
EXTT10=
EXTT11=
EXTT12=
EXTT13=
EXTT14=
EXTT15=
PLAYORDER=
